<?xml version="1.0" encoding="utf-8"?>
<!-- Generator: Adobe Illustrator 23.0.1, SVG Export Plug-In . SVG Version: 6.00 Build 0)  -->
<svg version="1.1" id="Layer_1" xmlns="http://www.w3.org/2000/svg" xmlns:xlink="http://www.w3.org/1999/xlink" x="0px" y="0px"
	 viewBox="0 0 20 20" style="enable-background:new 0 0 20 20;" xml:space="preserve">
<style type="text/css">
	.st0{fill:#9EA3A8;}
</style>
<g>
	<path class="st0" d="M19.78,17.31l-3.13-2.09c0.28-0.63,0.37-1.37,0.12-2.16c-0.32-1.02-1.2-1.8-2.24-2.01
		c-2.06-0.41-3.85,1.3-3.59,3.35c0.17,1.34,1.28,2.42,2.62,2.58c1,0.12,1.92-0.27,2.54-0.93l3.13,2.09
		c0.23,0.15,0.54,0.09,0.69-0.14h0C20.07,17.78,20.01,17.47,19.78,17.31z"/>
	<polygon class="st0" points="11.51,0.37 11.51,2.34 13.37,2.34 	"/>
	<path class="st0" d="M6.22,4.5H3.59c-0.1,0-0.19,0.08-0.19,0.19v2.63c0,0.1,0.08,0.19,0.19,0.19h2.63c0.1,0,0.19-0.08,0.19-0.19
		V4.68C6.4,4.58,6.32,4.5,6.22,4.5z"/>
	<path class="st0" d="M13.78,18.51c-2.42-0.07-4.37-2.06-4.37-4.5c0-2.44,1.95-4.43,4.37-4.5c0.07,0,0.13-0.06,0.13-0.13V3.59
		c0-0.08-0.06-0.14-0.14-0.14h-2.6c-0.35,0-0.63-0.28-0.63-0.63v-2.7c0-0.08-0.06-0.14-0.14-0.14H1.37C0.61-0.01,0,0.6,0,1.36v17.28
		c0,0.76,0.61,1.37,1.37,1.37h11.17c0.76,0,1.37-0.61,1.37-1.37C13.91,18.57,13.85,18.51,13.78,18.51z M6.4,18.01h-4
		c-0.28,0-0.5-0.22-0.5-0.5s0.22-0.5,0.5-0.5h4c0.28,0,0.5,0.22,0.5,0.5S6.68,18.01,6.4,18.01z M6.9,14.5c0,0.28-0.22,0.5-0.5,0.5
		h-4c-0.28,0-0.5-0.22-0.5-0.5v0c0-0.28,0.22-0.5,0.5-0.5h4C6.68,14,6.9,14.23,6.9,14.5L6.9,14.5z M6.4,12h-4
		c-0.28,0-0.5-0.22-0.5-0.5S2.12,11,2.4,11h4c0.28,0,0.5,0.22,0.5,0.5S6.68,12,6.4,12z M7.91,7.6C7.91,8.37,7.28,9,6.5,9H3.3
		C2.53,9,1.9,8.37,1.9,7.6V4.4c0-0.78,0.63-1.4,1.4-1.4h3.2c0.78,0,1.4,0.63,1.4,1.4V7.6z"/>
</g>
</svg>
