<?xml version="1.0" encoding="utf-8"?>
<!-- Generator: Adobe Illustrator 23.0.1, SVG Export Plug-In . SVG Version: 6.00 Build 0)  -->
<svg version="1.1" id="Layer_1" xmlns="http://www.w3.org/2000/svg" xmlns:xlink="http://www.w3.org/1999/xlink" x="0px" y="0px"
	 viewBox="0 0 20 20" style="enable-background:new 0 0 20 20;" xml:space="preserve">
<style type="text/css">
	.st0{fill:#9EA3A8;}
</style>
<path class="st0" d="M19.94,8.89c-0.03-0.28-0.36-0.49-0.64-0.49c-0.92,0-1.73-0.54-2.07-1.37c-0.35-0.85-0.12-1.85,0.56-2.47
	c0.22-0.2,0.24-0.53,0.06-0.75c-0.47-0.6-1-1.13-1.58-1.6c-0.23-0.18-0.56-0.16-0.76,0.06c-0.6,0.66-1.67,0.91-2.49,0.56
	c-0.86-0.36-1.4-1.23-1.35-2.17c0.02-0.29-0.2-0.55-0.49-0.58c-0.75-0.09-1.5-0.09-2.25-0.01c-0.29,0.03-0.5,0.28-0.49,0.57
	C8.45,1.56,7.9,2.42,7.05,2.77C6.23,3.1,5.17,2.86,4.57,2.2c-0.2-0.22-0.53-0.24-0.75-0.06c-0.6,0.47-1.14,1.01-1.62,1.6
	C2.02,3.97,2.04,4.3,2.26,4.5c0.7,0.63,0.92,1.63,0.56,2.5c-0.35,0.82-1.2,1.35-2.18,1.35C0.33,8.34,0.1,8.55,0.07,8.84
	c-0.09,0.75-0.09,1.52,0,2.27c0.03,0.28,0.37,0.49,0.66,0.49c0.87-0.02,1.71,0.52,2.06,1.37c0.35,0.85,0.12,1.85-0.56,2.47
	C2,15.64,1.98,15.97,2.16,16.2c0.46,0.59,1,1.13,1.58,1.6c0.23,0.18,0.56,0.16,0.76-0.06c0.6-0.66,1.67-0.91,2.49-0.56
	c0.86,0.36,1.41,1.23,1.35,2.17c-0.02,0.29,0.2,0.55,0.49,0.58C9.22,19.98,9.6,20,9.99,20c0.37,0,0.73-0.02,1.1-0.06
	c0.29-0.03,0.5-0.28,0.49-0.57c-0.03-0.93,0.52-1.78,1.37-2.13c0.82-0.34,1.88-0.09,2.48,0.56c0.2,0.22,0.52,0.24,0.75,0.06
	c0.6-0.47,1.14-1.01,1.62-1.6c0.18-0.23,0.16-0.56-0.06-0.76c-0.7-0.63-0.92-1.63-0.56-2.49c0.34-0.81,1.16-1.36,2.05-1.36l0.12,0
	c0.29,0.02,0.55-0.2,0.59-0.49C20.02,10.41,20.02,9.65,19.94,8.89z M10,15.77c-3.18,0-5.77-2.58-5.77-5.77S6.82,4.24,10,4.24
	s5.77,2.58,5.77,5.77c0,1.08-0.3,2.09-0.82,2.96l-2.52-2.52c0.18-0.43,0.28-0.9,0.28-1.38c0-0.94-0.37-1.83-1.04-2.5
	C11,5.88,10.11,5.52,9.17,5.52c-0.32,0-0.63,0.04-0.93,0.12C8.11,5.68,8,5.79,7.96,5.92c-0.04,0.14,0,0.28,0.11,0.38
	c0,0,1.25,1.26,1.66,1.67c0.04,0.04,0.04,0.15,0.04,0.19l0,0.03C9.73,8.65,9.65,9.2,9.58,9.41C9.57,9.42,9.56,9.43,9.55,9.43
	C9.54,9.44,9.53,9.45,9.53,9.46C9.31,9.53,8.75,9.61,8.29,9.66l0,0L8.27,9.66c0,0-0.01,0-0.02,0c-0.05,0-0.12-0.01-0.19-0.08
	C7.62,9.14,6.42,7.95,6.42,7.95C6.32,7.85,6.2,7.82,6.13,7.82c-0.17,0-0.32,0.12-0.37,0.3c-0.33,1.22,0.02,2.53,0.91,3.42
	c0.67,0.67,1.56,1.04,2.5,1.04c0.48,0,0.95-0.1,1.38-0.28l2.55,2.55C12.21,15.43,11.14,15.77,10,15.77z"/>
</svg>
