<?xml version="1.0" encoding="utf-8"?>
<!-- Generator: Adobe Illustrator 23.0.1, SVG Export Plug-In . SVG Version: 6.00 Build 0)  -->
<svg version="1.1" id="Layer_1" xmlns="http://www.w3.org/2000/svg" xmlns:xlink="http://www.w3.org/1999/xlink" x="0px" y="0px"
	 viewBox="0 0 20 20" style="enable-background:new 0 0 20 20;" xml:space="preserve">
<style type="text/css">
	.st0{fill:#9EA3A8;}
</style>
<g>
	<g>
		<g>
			<g>
				<path class="st0" d="M17.11,10.68h-1.55c0.16,0.43,0.24,0.9,0.24,1.38v5.85c0,0.2-0.04,0.4-0.1,0.58h2.56
					c0.96,0,1.73-0.78,1.73-1.73v-3.19C20,11.97,18.71,10.68,17.11,10.68z"/>
			</g>
		</g>
	</g>
	<g>
		<g>
			<g>
				<path class="st0" d="M4.19,12.06c0-0.49,0.09-0.95,0.24-1.38H2.89c-1.59,0-2.89,1.3-2.89,2.89v3.19c0,0.96,0.78,1.73,1.73,1.73
					h2.56c-0.06-0.18-0.1-0.38-0.1-0.58V12.06z"/>
			</g>
		</g>
	</g>
	<g>
		<g>
			<g>
				<path class="st0" d="M11.77,9.17H8.23c-1.59,0-2.89,1.3-2.89,2.89v5.85c0,0.32,0.26,0.58,0.58,0.58h8.16
					c0.32,0,0.58-0.26,0.58-0.58v-5.85C14.66,10.47,13.36,9.17,11.77,9.17z"/>
			</g>
		</g>
	</g>
	<g>
		<g>
			<g>
				<path class="st0" d="M10,1.52c-1.91,0-3.47,1.56-3.47,3.47c0,1.3,0.72,2.43,1.78,3.03C8.81,8.3,9.38,8.46,10,8.46
					s1.19-0.16,1.7-0.44c1.06-0.6,1.78-1.73,1.78-3.03C13.47,3.07,11.91,1.52,10,1.52z"/>
			</g>
		</g>
	</g>
	<g>
		<g>
			<g>
				<path class="st0" d="M3.9,4.75c-1.43,0-2.6,1.16-2.6,2.6s1.16,2.6,2.6,2.6c0.36,0,0.71-0.08,1.02-0.21
					C5.47,9.5,5.92,9.09,6.19,8.57C6.39,8.21,6.5,7.79,6.5,7.35C6.5,5.92,5.33,4.75,3.9,4.75z"/>
			</g>
		</g>
	</g>
	<g>
		<g>
			<g>
				<path class="st0" d="M16.1,4.75c-1.43,0-2.6,1.16-2.6,2.6c0,0.44,0.11,0.86,0.31,1.22c0.28,0.52,0.73,0.93,1.27,1.17
					c0.31,0.14,0.66,0.21,1.02,0.21c1.43,0,2.6-1.16,2.6-2.6S17.53,4.75,16.1,4.75z"/>
			</g>
		</g>
	</g>
</g>
</svg>
